# xmcd CD database file
#
# Track frame offsets:
#	150
#	16227
#	34336
#	49426
#	69937
#	86898
#	103165
#	117906
#	138433
#	154945
#	170481
#	185881
#	208364
#	226302
#	248456
#	262488
#	288141
#
# Disc length: 4045 seconds
#
# Revision: 0
# Processed by: cddbd v1.5.2PL0 Copyright (c) Steve Scherf et al.
# Submitted via: CDex 1.51
#
DISCID=030fcb11
DTITLE=Eight Goin' South - cross the line
DYEAR=1900
DGENRE=Blues
TTITLE0=Cross the line
TTITLE1=Thank you
TTITLE2=I'm free
TTITLE3=Lately I watched you sleeping
TTITLE4=I'm sorry
TTITLE5=Road- trippin blues
TTITLE6=Won't give up
TTITLE7=Here for you
TTITLE8=Take for granted
TTITLE9=Farewell
TTITLE10=Golden Sunrise
TTITLE11=What's gone is gone
TTITLE12=Outta here
TTITLE13=Where are you now
TTITLE14=A smile can make lovely day
TTITLE15=Sleepless
TTITLE16=Here for you (Pianoversion)
EXTD=
EXTT0=
EXTT1=
EXTT2=
EXTT3=
EXTT4=
EXTT5=
EXTT6=
EXTT7=
EXTT8=
EXTT9=
EXTT10=
EXTT11=
EXTT12=
EXTT13=
EXTT14=
EXTT15=
EXTT16=
PLAYORDER=
